<svg width="1188" height="279" viewBox="0 0 1188 279" fill="none" xmlns="http://www.w3.org/2000/svg">
<path d="M318.866 0C306.721 0 296.601 1.53779 288.504 4.99804C280.408 8.4583 273.931 12.9438 269.208 18.7109C264.485 24.478 261.112 31.1422 259.088 38.8316C257.199 46.3929 256.119 54.4669 256.119 62.9253V76.1255H229.536V109.703H256.119V213.254H304.022V109.703H336.408V76.1255H304.022V62.4126C304.022 59.3368 304.292 56.1329 304.967 53.0571C305.507 49.9813 306.586 47.1619 308.205 44.5987C309.825 42.1637 311.849 40.1132 314.683 38.7035C317.381 37.2937 321.025 36.5248 325.478 36.5248C327.772 36.5248 330.2 36.5248 332.494 37.0374C334.788 37.4219 336.812 37.8064 338.702 38.4472L341.94 2.69121C338.567 1.7941 334.923 1.02516 331.01 0.640686C326.962 0.128056 322.914 0 318.866 0Z" fill="#E5F0FF"/>
<path d="M0 213.256H41.9659V75.8708H0V213.256Z" fill="#E5F0FF"/>
<path d="M183.654 77.1519C190.401 80.484 195.934 84.7131 200.117 89.9676H200.252C204.435 95.2221 207.404 101.245 209.293 108.038C211.182 114.83 212.127 121.623 212.127 128.415V213.255H163.953V138.411C163.953 134.566 163.549 130.85 162.874 127.39C162.199 123.929 161.12 120.854 159.501 118.162C157.881 115.599 155.722 113.42 152.889 111.883C150.055 110.345 146.411 109.576 142.228 109.576C138.045 109.576 134.267 110.345 131.028 111.883C127.79 113.42 125.091 115.599 122.932 118.29C120.773 120.982 119.154 124.186 118.074 127.774C116.995 131.362 116.455 135.079 116.455 138.924V213.255H68.282V76.1266H114.701V95.0939H115.241C116.995 92.1463 119.289 89.1987 122.123 86.3792C124.956 83.5597 128.33 81.1247 132.108 79.0742C135.886 77.0237 140.069 75.3576 144.522 74.0761C148.975 72.7945 153.698 72.1537 158.826 72.1537C168.541 72.1537 176.773 73.8198 183.654 77.1519Z" fill="#E5F0FF"/>
<path fill-rule="evenodd" clip-rule="evenodd" d="M640.962 76.1266V93.6842H640.423C635.43 86.3792 628.683 80.9966 620.317 77.4082C611.951 73.9479 603.18 72.1537 594.004 72.1537C583.074 72.1537 573.358 74.0761 564.857 78.049C556.221 82.0218 549.069 87.2763 543.132 93.9405C537.195 100.477 532.607 108.166 529.503 116.753C526.4 125.339 524.78 134.438 524.78 144.05C524.78 153.662 526.4 162.633 529.503 171.219C532.607 179.678 537.195 187.239 543.132 193.647C549.069 200.055 556.356 205.181 564.857 208.898C573.493 212.743 583.209 214.537 594.409 214.537C604.124 214.537 612.76 212.871 620.452 209.539C628.008 206.207 634.081 201.849 638.534 196.338H639.478V204.54C639.478 216.075 636.105 225.43 629.358 232.351C622.611 239.271 612.221 242.731 598.187 242.731C590.091 242.731 581.724 241.322 573.223 238.502C564.722 235.683 557.031 231.197 550.014 225.43L526.13 257.598C535.98 264.518 547.855 269.901 561.349 273.489C574.977 277.206 588.067 279 601.021 279C613.975 279 625.579 277.462 636.24 274.258C646.9 271.054 655.806 266.184 663.227 259.648C670.649 253.112 676.316 244.91 680.499 235.042C684.548 225.046 686.707 213.511 686.707 200.055V76.1266H640.962ZM638.129 157.25C636.509 161.48 634.081 165.196 631.112 168.272C628.143 171.348 624.365 173.911 620.047 175.833C615.729 177.756 610.736 178.781 605.204 178.781C599.671 178.781 594.948 177.884 590.765 175.833C586.582 173.911 583.074 171.348 580.105 168.144C577.272 164.94 574.978 161.223 573.358 156.994C571.874 152.765 571.064 148.407 571.064 143.794C571.064 139.18 571.874 134.566 573.358 130.337C574.978 126.108 577.137 122.391 580.105 119.316C583.074 116.112 586.582 113.677 590.765 111.883C594.948 110.088 599.806 109.191 605.204 109.191C610.601 109.191 615.594 110.088 619.777 111.883C624.095 113.677 627.738 116.24 630.842 119.444C633.946 122.648 636.375 126.364 637.994 130.594C639.613 134.823 640.558 139.18 640.558 143.794C640.558 148.407 639.748 153.149 637.994 157.25H638.129Z" fill="#E5F0FF"/>
<path fill-rule="evenodd" clip-rule="evenodd" d="M836.488 91.5042C842.965 97.9121 847.958 105.73 851.601 114.957V114.701C855.245 123.928 856.999 134.309 856.999 146.099V151.61C856.999 153.404 856.864 155.198 856.729 156.865H751.207C751.612 160.709 752.826 164.17 754.85 167.245C756.874 170.449 759.438 173.141 762.677 175.447C765.78 177.754 769.424 179.548 773.472 180.83C777.385 182.112 781.568 182.752 785.886 182.752C793.443 182.752 799.92 181.471 805.182 178.779C810.445 176.088 814.628 172.628 818.002 168.399L851.332 188.263C844.585 197.619 835.544 204.924 824.344 209.922C813.144 215.048 800.19 217.483 785.347 217.483C774.416 217.483 764.026 215.945 754.311 212.741C744.46 209.409 735.959 204.795 728.672 198.644C721.386 192.492 715.583 184.931 711.4 175.96C707.352 166.861 705.193 156.224 705.193 145.074C705.193 133.924 707.352 123.8 711.4 114.701C715.448 105.73 720.981 98.0402 727.998 91.6323C735.014 85.2245 743.246 80.3545 752.826 76.8942C762.407 73.434 773.067 71.6398 783.862 71.6398C794.657 71.6398 804.508 73.3058 813.414 76.7661C822.454 80.2263 830.011 85.0963 836.488 91.5042ZM754.041 119.058C752.287 122.262 751.342 125.594 751.072 129.054V129.182H812.739C812.739 122.006 810.31 115.854 805.587 110.728C800.864 105.602 793.713 103.038 784.132 103.038C779.544 103.038 775.226 103.679 771.313 105.089C767.4 106.37 764.026 108.293 761.057 110.728C758.089 113.035 755.795 115.854 754.041 119.058Z" fill="#E5F0FF"/>
<path d="M1007.19 89.9676C1003 84.7131 997.472 80.484 990.725 77.1519C983.843 73.8198 975.611 72.1537 965.896 72.1537C960.768 72.1537 956.046 72.7945 951.593 74.0761C947.14 75.3576 942.956 77.0237 939.178 79.0742C935.4 81.1247 932.026 83.5597 929.193 86.3792C926.359 89.1987 924.065 92.1463 922.311 95.0939H921.771V76.1266H875.352V213.255H923.525V138.924C923.525 135.079 924.065 131.362 925.145 127.774C926.224 124.186 927.843 120.982 930.002 118.29C932.161 115.599 934.86 113.42 938.099 111.883C941.337 110.345 945.115 109.576 949.298 109.576C953.482 109.576 957.125 110.345 959.959 111.883C962.792 113.42 964.951 115.599 966.571 118.162C968.19 120.854 969.269 123.929 969.944 127.39C970.619 130.85 971.024 134.566 971.024 138.411V213.255H1019.2V128.415C1019.2 121.623 1018.25 114.83 1016.36 108.038C1014.47 101.245 1011.51 95.2221 1007.32 89.9676H1007.19Z" fill="#E5F0FF"/>
<path fill-rule="evenodd" clip-rule="evenodd" d="M1167.62 91.5042C1173.97 97.9121 1178.96 105.73 1182.6 114.957C1186.11 124.184 1188 134.309 1188 146.099V151.61C1188 153.404 1188 155.198 1187.73 156.865H1082.21C1082.61 160.709 1083.83 164.17 1085.85 167.245C1087.88 170.449 1090.44 173.141 1093.68 175.447C1096.78 177.754 1100.42 179.548 1104.47 180.83C1108.52 182.112 1112.57 182.752 1116.89 182.752C1124.44 182.752 1130.92 181.471 1136.18 178.779C1141.45 176.088 1145.63 172.628 1149 168.399L1182.33 188.263C1175.59 197.619 1166.54 204.795 1155.34 209.922C1144.15 215.048 1131.19 217.483 1116.35 217.483C1105.42 217.483 1095.03 215.945 1085.31 212.741C1075.6 209.409 1067.1 204.795 1059.81 198.644C1052.52 192.492 1046.72 184.931 1042.54 175.96C1038.35 166.861 1036.19 156.224 1036.19 145.074C1036.19 133.924 1038.35 123.8 1042.4 114.701C1046.58 105.73 1052.12 98.0402 1059.13 91.6323C1066.15 85.2245 1074.38 80.3545 1083.96 76.8942C1093.54 73.434 1104.34 71.6398 1115 71.6398C1125.66 71.6398 1135.51 73.3058 1144.55 76.7661C1153.46 80.2263 1161.15 85.0963 1167.62 91.5042ZM1085.04 119.058C1083.42 122.262 1082.34 125.594 1082.21 129.054V129.182H1143.88C1143.88 122.006 1141.45 115.854 1136.72 110.728C1132 105.602 1124.85 103.038 1115.27 103.038C1110.55 103.038 1106.23 103.679 1102.31 105.089C1098.4 106.37 1094.89 108.293 1092.06 110.728C1089.09 113.035 1086.8 115.854 1085.04 119.058Z" fill="#E5F0FF"/>
<path d="M41.8537 30.5452C41.8537 41.5565 32.4844 50.4829 20.9268 50.4829C9.36926 50.4829 0 41.5565 0 30.5452C0 19.5339 9.36926 10.6074 20.9268 10.6074C32.4844 10.6074 41.8537 19.5339 41.8537 30.5452Z" fill="#E5F0FF"/>
<path d="M454.78 69.0058C447.758 66.9942 440.353 65.9473 432.649 65.9473C389.808 65.9473 355.082 98.9536 355.082 139.606C355.082 180.259 389.808 213.265 432.649 213.265C475.491 213.265 510.216 180.259 510.216 139.606C510.216 130.558 508.486 121.765 505.293 113.736C504.63 115.203 503.849 116.631 502.958 118.001C496.545 128.198 484.808 135.027 471.392 135.027C470.951 135.027 470.512 135.019 470.075 135.005C470.273 136.496 470.435 137.987 470.435 139.479C470.435 149.036 466.443 158.085 459.392 164.839C452.207 171.593 442.761 175.289 432.649 175.289C422.537 175.289 413.091 171.593 405.906 164.839C398.722 158.085 394.863 149.036 394.863 139.479C394.863 129.921 398.855 120.873 405.906 114.119C413.091 107.364 422.537 103.669 432.649 103.669C433.379 103.669 434.109 103.669 434.839 103.697C434.713 102.526 434.649 101.338 434.649 100.136C434.649 86.5428 442.835 74.7654 454.78 69.0058Z" fill="url(#paint0_linear_3410_146)"/>
<path d="M491.804 100.136C491.804 110.841 482.665 119.519 471.392 119.519C460.118 119.519 450.979 110.841 450.979 100.136C450.979 89.4301 460.118 80.7516 471.392 80.7516C482.665 80.7516 491.804 89.4301 491.804 100.136Z" fill="url(#paint1_linear_3410_146)"/>
<defs>
<linearGradient id="paint0_linear_3410_146" x1="355.082" y1="139.155" x2="509.408" y2="139.155" gradientUnits="userSpaceOnUse">
<stop stop-color="#61A0FF"/>
<stop offset="1" stop-color="#5CFF9D"/>
</linearGradient>
<linearGradient id="paint1_linear_3410_146" x1="355.082" y1="139.155" x2="509.408" y2="139.155" gradientUnits="userSpaceOnUse">
<stop stop-color="#61A0FF"/>
<stop offset="1" stop-color="#5CFF9D"/>
</linearGradient>
</defs>
</svg>
